<?xml version="1.0" encoding="UTF-8" standalone="no"?>
<svg
   xmlns:dc="http://purl.org/dc/elements/1.1/"
   xmlns:cc="http://creativecommons.org/ns#"
   xmlns:rdf="http://www.w3.org/1999/02/22-rdf-syntax-ns#"
   xmlns:svg="http://www.w3.org/2000/svg"
   xmlns="http://www.w3.org/2000/svg"
   xmlns:sodipodi="http://sodipodi.sourceforge.net/DTD/sodipodi-0.dtd"
   xmlns:inkscape="http://www.inkscape.org/namespaces/inkscape"
   inkscape:export-ydpi="50.884018"
   inkscape:export-xdpi="50.884018"
   inkscape:export-filename="C:\Users\tgourdel\Documents\datagenerator-component\src\main\resources\icons\DataGeneratorOutput_icon32.png"
   sodipodi:docname="DataGenerator.svg"
   inkscape:version="1.0 (4035a4fb49, 2020-05-01)"
   id="svg8"
   version="1.1"
   viewBox="0 0 16 16">
  <defs
     id="defs2" />
  <sodipodi:namedview
     inkscape:window-maximized="1"
     inkscape:window-y="-8"
     inkscape:window-x="1912"
     inkscape:window-height="987"
     inkscape:window-width="1680"
     fit-margin-bottom="0"
     fit-margin-right="0"
     fit-margin-left="0"
     fit-margin-top="0"
     showgrid="false"
     inkscape:document-rotation="0"
     inkscape:current-layer="layer1"
     inkscape:document-units="mm"
     inkscape:cy="32.881583"
     inkscape:cx="29.937217"
     inkscape:zoom="3.959798"
     inkscape:pageshadow="2"
     inkscape:pageopacity="0.0"
     borderopacity="1.0"
     bordercolor="#666666"
     pagecolor="#ffffff"
     id="base" />
  <metadata
     id="metadata5">
    <rdf:RDF>
      <cc:Work
         rdf:about="">
        <dc:format>image/svg+xml</dc:format>
        <dc:type
           rdf:resource="http://purl.org/dc/dcmitype/StillImage" />
        <dc:title></dc:title>
      </cc:Work>
    </rdf:RDF>
  </metadata>
  <g
     transform="translate(-57.150005,-74.0351)"
     id="layer1"
     inkscape:groupmode="layer"
     inkscape:label="Calque 1">
    <circle
       r="0.86284423"
       style="fill:#ff6d70;fill-opacity:1;stroke-width:0.431423"
       id="circle1446"
       cy="81.811661"
       cx="60.232586" />
    <path
       style="fill:#ff6d70;fill-opacity:1;stroke-width:0.431423"
       id="path1448"
       d="m 62.432849,80.901364 a 0.43961909,0.43961909 0 0 1 0.02589,-0.388279 l 0.280423,-0.465936 -0.742042,-0.742046 -0.46594,0.280423 a 0.43961909,0.43961909 0 0 1 -0.388278,0.02588 0.43444204,0.43444204 0 0 1 -0.254543,-0.293368 l -0.129417,-0.526332 h -1.052669 l -0.129433,0.526332 a 0.43444204,0.43444204 0 0 1 -0.254541,0.293368 0.43961909,0.43961909 0 0 1 -0.388281,-0.02588 l -0.465935,-0.280423 -0.742047,0.742046 0.280425,0.465936 a 0.43961909,0.43961909 0 0 1 0.02588,0.388279 0.43444204,0.43444204 0 0 1 -0.293367,0.254538 l -0.526335,0.129433 v 1.052671 l 0.526335,0.129433 a 0.43444204,0.43444204 0 0 1 0.293367,0.254536 0.43961909,0.43961909 0 0 1 -0.02588,0.38828 l -0.280425,0.465936 0.742047,0.742047 0.465935,-0.280427 a 0.43961909,0.43961909 0 0 1 0.388281,-0.02589 0.43444204,0.43444204 0 0 1 0.254541,0.293368 l 0.129433,0.526334 h 1.052669 l 0.129417,-0.526334 a 0.43444204,0.43444204 0 0 1 0.254543,-0.293368 0.43961909,0.43961909 0 0 1 0.388278,0.02589 l 0.46594,0.280427 0.742042,-0.742047 -0.280423,-0.465936 a 0.43961909,0.43961909 0 0 1 -0.02589,-0.38828 0.43444204,0.43444204 0 0 1 0.293368,-0.254536 l 0.526336,-0.129433 v -1.052671 l -0.526336,-0.129433 a 0.43444204,0.43444204 0 0 1 -0.293368,-0.254538 z m -2.20026,2.635989 a 1.7256883,1.7256883 0 1 1 1.725696,-1.725689 1.7256883,1.7256883 0 0 1 -1.725696,1.725689 z" />
    <path
       style="stroke-width:0.431423"
       id="path1450"
       d="m 66.70393,78.791711 h -3.019959 v -0.862846 h 2.588536 v -3.451376 a 0.43142207,0.43142207 0 0 1 0.431423,-0.431423 h 4.745642 v 0.862843 h -4.31422 v 3.451381 a 0.43142207,0.43142207 0 0 1 -0.431422,0.431421 z" />
    <path
       style="stroke-width:0.431423"
       id="path1452"
       d="m 72.312419,74.046066 h 0.86284 v 0.862843 h -0.86284 z" />
    <path
       style="stroke-width:0.431423"
       id="path1454"
       d="m 68.86104,80.94882 h -3.882798 v -0.862842 h 3.451375 v -2.157113 a 0.43142207,0.43142207 0 0 1 0.431423,-0.431423 h 4.314219 v 0.862848 h -3.882797 v 2.157108 A 0.43142207,0.43142207 0 0 1 68.86104,80.94882 Z" />
    <path
       style="stroke-width:0.431423"
       id="path1456"
       d="M 71.449572,85.263043 H 67.566773 A 0.43142207,0.43142207 0 0 1 67.135352,84.831618 V 83.10593 h -2.15711 v -0.862843 h 2.588531 a 0.43142207,0.43142207 0 0 1 0.431423,0.431421 v 1.725689 h 3.451376 z" />
    <path
       style="stroke-width:0.431423"
       id="path1458"
       d="m 72.312419,84.400197 h 0.86284 v 0.862846 h -0.86284 z" />
    <path
       style="stroke-width:0.431423"
       id="path1460"
       d="m 71.449572,90.008683 h -0.862843 v -1.725687 h -5.177064 a 0.43142207,0.43142207 0 0 1 -0.431423,-0.43142 v -2.588533 h -1.294271 v -0.862846 h 1.725694 a 0.43142207,0.43142207 0 0 1 0.431423,0.431421 v 2.588534 h 5.177063 a 0.43142207,0.43142207 0 0 1 0.431421,0.431424 z" />
  </g>
</svg>
