<?xml version="1.0" encoding="UTF-8" standalone="no"?>
<svg
   xmlns:dc="http://purl.org/dc/elements/1.1/"
   xmlns:cc="http://creativecommons.org/ns#"
   xmlns:rdf="http://www.w3.org/1999/02/22-rdf-syntax-ns#"
   xmlns:svg="http://www.w3.org/2000/svg"
   xmlns="http://www.w3.org/2000/svg"
   xmlns:sodipodi="http://sodipodi.sourceforge.net/DTD/sodipodi-0.dtd"
   xmlns:inkscape="http://www.inkscape.org/namespaces/inkscape"
   sodipodi:docname="DataGenerator.svg"
   inkscape:version="1.0 (4035a4fb49, 2020-05-01)"
   id="svg8"
   version="1.1"
   viewBox="0 0 95.25 95.25"
   height="95.25mm"
   width="95.25mm">
  <defs
     id="defs2" />
  <sodipodi:namedview
     inkscape:window-maximized="1"
     inkscape:window-y="-8"
     inkscape:window-x="1912"
     inkscape:window-height="987"
     inkscape:window-width="1680"
     fit-margin-bottom="0"
     fit-margin-right="0"
     fit-margin-left="0"
     fit-margin-top="0"
     showgrid="false"
     inkscape:document-rotation="0"
     inkscape:current-layer="layer1"
     inkscape:document-units="mm"
     inkscape:cy="-13.921175"
     inkscape:cx="3.9999849"
     inkscape:zoom="0.35"
     inkscape:pageshadow="2"
     inkscape:pageopacity="0.0"
     borderopacity="1.0"
     bordercolor="#666666"
     pagecolor="#ffffff"
     id="base" />
  <metadata
     id="metadata5">
    <rdf:RDF>
      <cc:Work
         rdf:about="">
        <dc:format>image/svg+xml</dc:format>
        <dc:type
           rdf:resource="http://purl.org/dc/dcmitype/StillImage" />
        <dc:title></dc:title>
      </cc:Work>
    </rdf:RDF>
  </metadata>
  <g
     transform="translate(-57.150005,-74.0351)"
     id="layer1"
     inkscape:groupmode="layer"
     inkscape:label="Calque 1">
    <circle
       style="stroke-width:1.5875"
       id="circle1446"
       r="3.1750002"
       cy="138.81555"
       cx="104.77499" />
    <path
       style="stroke-width:1.5875"
       id="path1448"
       d="m 112.87131,135.46591 a 1.6176625,1.6176625 0 0 1 0.0953,-1.42875 l 1.03187,-1.7145 -2.73049,-2.7305 -1.71451,1.03187 a 1.6176625,1.6176625 0 0 1 -1.42875,0.0952 1.5986126,1.5986126 0 0 1 -0.93664,-1.0795 l -0.47626,-1.93674 h -3.8735 l -0.47626,1.93674 a 1.5986126,1.5986126 0 0 1 -0.93664,1.0795 1.6176625,1.6176625 0 0 1 -1.428752,-0.0952 l -1.7145,-1.03187 -2.730497,2.7305 1.031874,1.7145 a 1.6176625,1.6176625 0 0 1 0.09525,1.42875 1.5986126,1.5986126 0 0 1 -1.0795,0.93662 l -1.93675,0.47625 v 3.8735 l 1.93675,0.47626 a 1.5986126,1.5986126 0 0 1 1.0795,0.93662 1.6176625,1.6176625 0 0 1 -0.09525,1.42875 l -1.031874,1.7145 2.730497,2.7305 1.7145,-1.03188 a 1.6176625,1.6176625 0 0 1 1.428752,-0.0953 1.5986126,1.5986126 0 0 1 0.93664,1.0795 l 0.47626,1.93675 h 3.8735 l 0.47626,-1.93675 a 1.5986126,1.5986126 0 0 1 0.93664,-1.0795 1.6176625,1.6176625 0 0 1 1.42875,0.0953 l 1.71451,1.03188 2.73049,-2.7305 -1.03187,-1.7145 a 1.6176625,1.6176625 0 0 1 -0.0953,-1.42875 1.5986126,1.5986126 0 0 1 1.0795,-0.93662 l 1.93675,-0.47626 v -3.8735 l -1.93675,-0.47625 a 1.5986126,1.5986126 0 0 1 -1.0795,-0.93662 z m -8.09628,9.69962 a 6.3500001,6.3500001 0 1 1 6.35003,-6.35 6.3500001,6.3500001 0 0 1 -6.35003,6.35 z" />
    <path
       style="stroke-width:1.5875"
       id="path1450"
       d="m 128.58756,127.70304 h -11.11251 v -3.17501 h 9.52501 v -12.7 a 1.5875,1.5875 0 0 1 1.5875,-1.5875 h 17.4625 v 3.175 h -15.875 v 12.70001 a 1.5875,1.5875 0 0 1 -1.5875,1.5875 z" />
    <path
       style="stroke-width:1.5875"
       id="path1452"
       d="m 149.22507,110.24053 h 3.17499 v 3.175 h -3.17499 z" />
    <path
       style="stroke-width:1.5875"
       id="path1454"
       d="m 136.52506,135.64053 h -14.2875 v -3.17499 h 12.7 v -7.93751 a 1.5875,1.5875 0 0 1 1.5875,-1.5875 h 15.875 v 3.17501 h -14.2875 v 7.93749 a 1.5875,1.5875 0 0 1 -1.5875,1.5875 z" />
    <path
       style="stroke-width:1.5875"
       id="path1456"
       d="m 146.05006,151.51554 h -14.2875 a 1.5875,1.5875 0 0 1 -1.5875,-1.58751 v -6.35 h -7.9375 v -3.175 h 9.525 a 1.5875,1.5875 0 0 1 1.5875,1.5875 v 6.35 h 12.7 z" />
    <path
       style="stroke-width:1.5875"
       id="path1458"
       d="m 149.22507,148.34053 h 3.17499 v 3.17501 h -3.17499 z" />
    <path
       style="stroke-width:1.5875"
       id="path1460"
       d="m 146.05006,168.97803 h -3.175 v -6.35 h -19.05 a 1.5875,1.5875 0 0 1 -1.5875,-1.58749 v -9.525 h -4.76251 v -3.17501 h 6.35001 a 1.5875,1.5875 0 0 1 1.58751,1.5875 v 9.525 h 19.04999 a 1.5875,1.5875 0 0 1 1.5875,1.58751 z" />
    <path
       style="stroke-width:1.5875"
       id="path1462"
       d="m 109.53756,154.69054 h 3.17499 v 7.93749 h -3.17499 z" />
    <path
       style="stroke-width:1.5875"
       id="path1464"
       d="m 109.53756,165.80303 h 3.17499 v 3.175 h -3.17499 z" />
    <path
       style="stroke-width:1.5875"
       id="path1466"
       d="M 92.075006,127.70304 H 80.962505 a 1.5875,1.5875 0 0 1 -1.587499,-1.5875 V 113.41553 H 63.500005 v -3.175 h 17.4625 a 1.5875,1.5875 0 0 1 1.587501,1.5875 v 12.7 h 9.525 z" />
    <path
       style="stroke-width:1.5875"
       id="path1468"
       d="m 57.150005,110.24053 h 3.175 v 3.175 h -3.175 z" />
    <path
       style="stroke-width:1.5875"
       id="path1470"
       d="M 87.312506,135.64053 H 73.025005 a 1.5875,1.5875 0 0 1 -1.587499,-1.5875 v -7.93749 H 57.150005 v -3.17501 h 15.875 a 1.5875,1.5875 0 0 1 1.587501,1.5875 v 7.93751 h 12.7 z" />
    <path
       style="stroke-width:1.5875"
       id="path1472"
       d="m 77.787505,151.51554 h -14.2875 v -3.17501 h 12.7 v -6.35 a 1.5875,1.5875 0 0 1 1.5875,-1.5875 h 9.525001 v 3.175 h -7.9375 v 6.35 a 1.5875,1.5875 0 0 1 -1.587501,1.58751 z" />
    <path
       style="stroke-width:1.5875"
       id="path1474"
       d="m 57.150005,148.34053 h 3.175 v 3.17501 h -3.175 z" />
    <path
       style="stroke-width:1.5875"
       id="path1476"
       d="m 66.675006,168.97803 h -3.175001 v -7.93749 a 1.5875,1.5875 0 0 1 1.5875,-1.58751 h 19.050001 v -9.525 a 1.5875,1.5875 0 0 1 1.5875,-1.5875 h 6.35 v 3.17501 h -4.7625 v 9.525 a 1.5875,1.5875 0 0 1 -1.5875,1.58749 h -19.05 z" />
    <path
       style="stroke-width:1.5875"
       id="path1478"
       d="m 96.837508,154.69054 h 3.175002 v 7.93749 h -3.175002 z" />
    <path
       style="stroke-width:1.5875"
       id="path1480"
       d="m 96.837508,165.80303 h 3.175002 v 3.175 h -3.175002 z" />
    <g
       transform="matrix(0.56066569,0,0,0.56066569,77.689745,62.783336)"
       id="Artwork_3_1_">
	<g
   id="g1568">
		<path
   class="st0"
   d="m 48.98326,20.06858 c -19.03618,0 -34.46796,15.43178 -34.46796,34.46796 0,19.03618 15.43178,34.46797 34.46796,34.46797 19.03618,0 34.46796,-15.43179 34.46796,-34.46797 0,-19.03618 -15.43177,-34.46796 -34.46796,-34.46796"
   id="path1556" />

		<path
   class="st1"
   d="M 67.32928,59.22544 C 66.75337,58.8134 66.33477,58.2712 66.07257,57.59789 65.81036,56.92365 65.6802,56.17261 65.6802,55.34292 c 0,-0.79973 0.16481,-1.54234 0.49632,-2.22782 0.33057,-0.68548 0.82782,-1.23612 1.48896,-1.65377 0.66207,-0.41766 1.46835,-0.62649 2.41885,-0.62649 0.48882,0 0.90367,0.03933 1.24267,0.11706 0.33993,0.07772 0.69391,0.2285 1.06287,0.45324 l -0.07773,-3.29069 c 0,-0.37926 -0.14796,-0.64428 -0.44482,-0.79411 -0.29685,-0.14983 -0.72668,-0.24442 -1.29137,-0.28468 -0.06929,-0.02903 -0.1208,-0.0693 -0.15545,-0.12174 -0.03371,-0.05151 -0.0515,-0.12548 -0.0515,-0.22381 0,-0.08053 0.01966,-0.16294 0.05993,-0.24628 0.04027,-0.08335 0.0899,-0.1283 0.14702,-0.13391 0.89806,-0.05806 2.05552,-0.08616 3.47237,-0.08616 h 0.71638 c 0.06274,0 0.12267,0.02716 0.17699,0.08147 0.05431,0.05525 0.08241,0.14328 0.08241,0.26408 v 11.5118 c 0,0.23037 0.04682,0.40454 0.14234,0.52254 0.09459,0.11799 0.20695,0.19385 0.33712,0.22849 0.12923,0.03465 0.29124,0.06368 0.48696,0.08615 0.12736,0.01124 0.2107,0.03652 0.25097,0.07398 0.04026,0.03746 0.06087,0.11893 0.06087,0.24535 0,0.07586 -0.02809,0.15265 -0.08241,0.23412 -0.05524,0.0796 -0.12548,0.11986 -0.21163,0.11986 H 73.0379 c -0.21913,0 -0.37646,-0.03278 -0.47104,-0.09926 -0.09458,-0.06555 -0.15077,-0.15639 -0.16856,-0.27157 -0.01686,-0.11518 -0.02248,-0.30247 -0.01686,-0.56187 -0.27719,0.3802 -0.68267,0.67331 -1.21832,0.87651 -0.53471,0.20509 -1.07317,0.30716 -1.61444,0.30716 -0.90368,0 -1.64348,-0.20602 -2.2194,-0.61713 m 4.32641,-0.84655 c 0.29311,-0.1414 0.51224,-0.33805 0.65645,-0.59184 V 52.67496 C 72.26626,52.53637 72.16512,52.39403 72.00967,52.247 71.85422,52.09998 71.67723,51.97917 71.4787,51.88459 c -0.19852,-0.09552 -0.38394,-0.14234 -0.55718,-0.14234 -0.84093,0 -1.43933,0.31184 -1.79612,0.93645 -0.35678,0.62555 -0.53471,1.51331 -0.53471,2.6642 0,2.16508 0.73044,3.24761 2.19317,3.24761 0.28747,2e-5 0.57871,-0.07115 0.87183,-0.21162"
   id="path1558" />

		<path
   class="st1"
   d="m 45.53814,58.6588 c -0.81096,-0.78756 -1.21738,-1.92254 -1.21738,-3.40213 0,-0.92709 0.21725,-1.72401 0.65176,-2.3917 0.43452,-0.66769 1.01793,-1.17337 1.74929,-1.51611 0.73043,-0.3418 1.53391,-0.51411 2.40949,-0.51411 1.27732,0 2.22969,0.25003 2.85805,0.74729 0.62743,0.49819 1.02167,1.22768 1.18368,2.18942 0.0515,0.31091 0.07679,0.78569 0.07679,1.42528 l -5.99329,0.0084 c 0,0.83438 0.1311,1.51143 0.39331,2.02929 0.26127,0.51786 0.59464,0.88963 0.99732,1.11438 0.40268,0.22475 0.82876,0.33619 1.27826,0.33619 0.53003,0 0.97485,-0.06836 1.33444,-0.20695 0.3596,-0.13766 0.67424,-0.36615 0.94488,-0.68174 0.0065,-0.0056 0.02248,-0.02529 0.04776,-0.05619 0.02622,-0.03184 0.05338,-0.05338 0.08241,-0.06461 0.0281,-0.01218 0.05994,-0.01499 0.09552,-0.0094 l 0.37926,0.18167 c 0.05806,0.02341 0.08616,0.05713 0.08616,0.10395 0,0.03371 -0.01686,0.08335 -0.05151,0.14608 -0.3109,0.54128 -0.76602,0.96736 -1.36441,1.27826 -0.59933,0.3109 -1.33538,0.46635 -2.21096,0.46635 -1.67532,-10e-6 -2.91892,-0.39425 -3.73083,-1.18368 m 4.5343,-6.42031 c -0.20134,-0.44669 -0.52441,-0.66956 -0.96735,-0.66956 -0.46635,0 -0.86809,0.23224 -1.20522,0.69579 -0.33619,0.4626 -0.54221,1.17618 -0.61712,2.13698 h 3.09216 c 1e-5,-0.99546 -0.10113,-1.71652 -0.30247,-2.16321"
   id="path1560" />

		<path
   class="st1"
   d="m 53.98841,59.47538 c -0.05244,-0.07772 -0.07773,-0.15639 -0.07773,-0.23692 0,-0.09833 0.01966,-0.17324 0.05993,-0.22475 0.04027,-0.05244 0.11518,-0.08428 0.22475,-0.09552 0.61057,-0.07398 0.91491,-0.2594 0.91491,-0.55251 V 52.8734 c 0,-0.26501 -0.04869,-0.46635 -0.14608,-0.60495 -0.09833,-0.13766 -0.21257,-0.22943 -0.34087,-0.27625 -0.12923,-0.04588 -0.29873,-0.08334 -0.50568,-0.11238 -0.16762,-0.02247 -0.26501,-0.04026 -0.29311,-0.0515 -0.07023,-0.02903 -0.12173,-0.0693 -0.15545,-0.1208 -0.03465,-0.05244 -0.05244,-0.12642 -0.05244,-0.22475 0,-0.08054 0.01873,-0.16201 0.05619,-0.24629 0.03746,-0.08334 0.08803,-0.12829 0.1517,-0.13391 1.34662,-0.0796 2.56401,-0.1208 3.6531,-0.1208 0.05712,0 0.11143,0.02622 0.16388,0.07773 0.05151,0.05244 0.08335,0.1414 0.09459,0.26782 v 0.96736 c 0.13297,-0.15545 0.3802,-0.35023 0.7426,-0.58341 0.36335,-0.23317 0.78475,-0.43732 1.26515,-0.61244 0.48133,-0.17605 0.95518,-0.26408 1.4206,-0.26408 0.85217,0 1.52922,0.18354 2.03022,0.54876 0.50006,0.36615 0.75104,1.0404 0.75104,2.0246 V 58.081 c 0,0.32214 0.08054,0.53284 0.2416,0.63023 0.16107,0.09833 0.32964,0.15545 0.50568,0.17231 0.17512,0.01779 0.29124,0.02903 0.3493,0.03465 0.10395,0.01124 0.17699,0.03933 0.221,0.08241 0.04214,0.04308 0.06368,0.12268 0.06368,0.23786 0,0.08053 -0.02528,0.15919 -0.07773,0.23692 -0.05151,0.07773 -0.12361,0.11706 -0.21538,0.11706 h -4.63731 c -0.09271,0 -0.16481,-0.03933 -0.21632,-0.11706 -0.05151,-0.07772 -0.07772,-0.15639 -0.07772,-0.23692 0,-0.10395 0.01685,-0.1798 0.05151,-0.22943 0.03465,-0.04869 0.10675,-0.0796 0.21632,-0.09084 0.21258,-0.02248 0.40455,-0.08334 0.57404,-0.18167 0.1695,-0.09739 0.25471,-0.221 0.25471,-0.37083 v -4.91356 c 0,-0.22475 -0.01685,-0.42608 -0.0515,-0.60495 -0.03465,-0.17886 -0.12829,-0.339 -0.28094,-0.48321 -0.15264,-0.14421 -0.38395,-0.21632 -0.69485,-0.21632 -0.29404,0 -0.59465,0.05618 -0.90274,0.16856 -0.30809,0.11237 -0.58997,0.2519 -0.84655,0.41859 -0.25565,0.16763 -0.45605,0.3315 -0.60027,0.49257 V 58.081 c 0,0.23037 0.04214,0.40455 0.12548,0.52254 0.08334,0.118 0.18542,0.19572 0.30716,0.23318 0.1208,0.03746 0.27625,0.06461 0.46541,0.08147 0.12642,0.01124 0.2107,0.03652 0.25097,0.07398 0.04026,0.03746 0.05993,0.11893 0.05993,0.24629 0,0.07492 -0.02716,0.1517 -0.08147,0.23317 -0.05525,0.08054 -0.12548,0.1208 -0.21164,0.1208 h -4.5343 c -0.09176,1e-5 -0.16387,-0.03932 -0.21537,-0.11705"
   id="path1562" />

		<path
   class="st1"
   d="M 43.95695,58.99255 C 43.91669,58.95416 43.83334,58.92981 43.70598,58.91857 43.49341,58.89516 43.31735,58.868 43.17969,58.83616 43.04109,58.80526 42.91936,58.73596 42.8126,58.62921 42.70585,58.52339 42.65247,58.36888 42.65247,58.16754 V 46.56865 c 0,-0.1208 -0.02716,-0.20789 -0.08147,-0.26314 -0.05525,-0.05432 -0.11425,-0.08241 -0.17699,-0.08241 -1.31852,0 -2.59959,0.0412 -3.8432,0.12174 -0.05806,0.0056 -0.10675,0.04963 -0.14702,0.13391 -0.04027,0.08335 -0.05993,0.16481 -0.05993,0.24535 0,0.09832 0.01685,0.17324 0.05151,0.22475 0.03465,0.0515 0.08615,0.09271 0.15545,0.1208 0.02341,0.0056 0.13204,0.02341 0.32776,0.05244 0.23598,0.02809 0.42889,0.06649 0.57872,0.11143 0.14983,0.04682 0.27906,0.1386 0.38863,0.27719 0.10957,0.13766 0.16388,0.3418 0.16388,0.61338 l -0.0084,10.32812 c 0,0.14421 -0.86528,0.49726 -1.49083,0.49726 -0.62555,0 -1.44307,-0.34836 -1.50675,-0.50194 -0.06274,-0.15265 -0.09458,-0.34087 -0.09458,-0.56562 v -4.64574 c 0,-0.47197 -0.13298,-0.88776 -0.39706,-1.24735 -0.26501,-0.36053 -0.67706,-0.64241 -1.23518,-0.84749 -0.55906,-0.20415 -1.26327,-0.30622 -2.11638,-0.30622 -0.59839,0 -1.21552,0.07398 -1.8523,0.22007 -0.63585,0.14703 -1.17431,0.37458 -1.61444,0.68267 -0.44013,0.30809 -0.66113,0.69204 -0.66113,1.15277 0,0.35679 0.1311,0.64896 0.39331,0.87652 0.17605,0.15358 0.38956,0.25003 0.63304,0.3006 0.25565,0.03652 0.52441,-0.02341 0.4907,-0.36053 -0.0019,-0.02341 0,-0.03559 0,-0.05244 -0.059,-0.70234 0.2903,-1.43933 1.1715,-1.8214 0.03933,-0.01686 0.07492,-0.0281 0.11144,-0.04214 0.1517,-0.07491 0.48602,-0.13578 0.95705,-0.13578 0.42608,0 0.74635,0.09645 0.96267,0.28936 0.21632,0.19291 0.32401,0.54595 0.32401,1.05819 v 1.42435 c -0.98515,0.10394 -1.86728,0.25284 -2.64735,0.44481 -0.78006,0.19291 -1.44213,0.50287 -1.98621,0.92896 -0.54408,0.42608 -0.81565,0.99264 -0.81565,1.70059 0,0.5188 0.13391,0.9505 0.40174,1.29605 0.26783,0.34555 0.59933,0.59839 0.99732,0.7604 0.39705,0.16013 0.78849,0.2416 1.17431,0.2416 0.61619,0 1.18461,-0.1002 1.70528,-0.29873 0.5216,-0.19759 0.96642,-0.48977 1.33444,-0.87652 v 0.02622 c 0,0.19572 0.03933,0.501 0.03933,0.501 0,0 0.03278,0.25003 0.32776,0.40361 0.29498,0.15451 2.12481,0.03652 2.45819,0.03652 h 6.65817 c 0.09177,0 0.16388,-0.03839 0.21632,-0.11612 0.05151,-0.07772 0.07679,-0.15639 0.07679,-0.23786 -10e-6,-0.1264 -0.01967,-0.20787 -0.05994,-0.24533 m -9.8805,-1.09284 c -0.35679,0.43733 -0.82033,0.65646 -1.39063,0.65646 -0.35679,0 -0.63491,-0.11237 -0.83344,-0.33712 -0.19853,-0.22475 -0.29779,-0.49258 -0.29779,-0.80348 0,-0.55812 0.12174,-0.99545 0.36241,-1.31197 0.24254,-0.31652 0.54033,-0.54127 0.89431,-0.67424 0.35398,-0.13204 0.77632,-0.23599 1.26514,-0.31091 z"
   id="path1564" />

		<path
   class="st1"
   d="m 28.03615,58.68071 c -0.03465,-0.1002 -0.08335,-0.19384 -0.14702,-0.28 -0.06368,-0.08709 -0.11237,-0.12173 -0.14609,-0.10395 -0.21913,0.10957 -0.45886,0.20134 -0.71732,0.27626 -0.2594,0.07491 -0.48415,0.11237 -0.67331,0.11237 -0.21351,0 -0.37645,-0.04776 -0.48789,-0.14234 -0.11237,-0.09552 -0.19291,-0.27063 -0.24254,-0.52722 -0.0487,-0.25565 -0.07304,-0.62836 -0.07304,-1.11813 v -4.966 h 1.85698 c 0.06368,0 0.12174,-0.05994 0.17699,-0.18074 0.05431,-0.1208 0.08241,-0.27064 0.08241,-0.4495 0,-0.07398 -0.01966,-0.14141 -0.05712,-0.19853 -0.03746,-0.05713 -0.08709,-0.0899 -0.15077,-0.09458 h -1.90849 v -2.41043 c 0,-0.1002 -0.06649,-0.17043 -0.18448,-0.21819 -0.21538,-0.06836 -0.3418,0.16669 -0.3418,0.16669 -0.5806,1.34288 -1.7212,2.37859 -3.13149,2.82059 0,0 -0.28843,0.06929 -0.21445,0.3699 0.0094,0.02622 0.01686,0.05244 0.02903,0.07866 0.04027,0.08335 0.08896,0.1283 0.14702,0.13391 h 0.92334 v 5.71704 c 0,0.8119 0.24629,1.37846 0.73886,1.7006 0.49257,0.32307 1.15277,0.48414 1.98247,0.48414 0.25846,0 0.55906,-0.04869 0.9018,-0.14702 0.34274,-0.09739 0.66488,-0.22287 0.96735,-0.37551 0.30247,-0.15264 0.52535,-0.30622 0.66956,-0.46167 0.03465,-0.02341 0.03465,-0.08521 0,-0.18635"
   id="path1566" />

	</g>

</g>
  </g>
  <style
     type="text/css"
     id="style1554">
	.st0{fill:#FF6D70;}
	.st1{fill:#F8F3EF;}
</style>
</svg>
