<?xml version="1.0" encoding="UTF-8"?>
<svg version="1.1" viewBox="0 0 16 16" xmlns="http://www.w3.org/2000/svg" xmlns:cc="http://creativecommons.org/ns#" xmlns:dc="http://purl.org/dc/elements/1.1/" xmlns:rdf="http://www.w3.org/1999/02/22-rdf-syntax-ns#">
 <metadata>
  <rdf:RDF>
   <cc:Work rdf:about="">
    <dc:format>image/svg+xml</dc:format>
    <dc:type rdf:resource="http://purl.org/dc/dcmitype/StillImage"/>
    <dc:title/>
   </cc:Work>
  </rdf:RDF>
 </metadata>
 <g transform="translate(-57.15 -74.035)">
  <g stroke-width=".26709">
   <circle cx="65.163" cy="84.934" r=".53417"/>
   <path d="m66.525 84.37a0.27216 0.27216 0 0 1 0.01603-0.24038l0.17361-0.28846-0.45939-0.45939-0.28846 0.17361a0.27216 0.27216 0 0 1-0.24038 0.01602 0.26896 0.26896 0 0 1-0.15758-0.18162l-0.08012-0.32584h-0.65169l-0.08013 0.32584a0.26896 0.26896 0 0 1-0.15758 0.18162 0.27216 0.27216 0 0 1-0.24038-0.01602l-0.28845-0.17361-0.45939 0.45939 0.17361 0.28846a0.27216 0.27216 0 0 1 0.01602 0.24038 0.26896 0.26896 0 0 1-0.18162 0.15758l-0.32585 0.08013v0.65169l0.32585 0.08013a0.26896 0.26896 0 0 1 0.18162 0.15758 0.27216 0.27216 0 0 1-0.01602 0.24038l-0.17361 0.28845 0.45939 0.45939 0.28845-0.17361a0.27216 0.27216 0 0 1 0.24038-0.01603 0.26896 0.26896 0 0 1 0.15758 0.18162l0.08013 0.32585h0.65169l0.08012-0.32585a0.26896 0.26896 0 0 1 0.15758-0.18162 0.27216 0.27216 0 0 1 0.24038 0.01603l0.28846 0.17361 0.45939-0.45939-0.17361-0.28845a0.27216 0.27216 0 0 1-0.01603-0.24038 0.26896 0.26896 0 0 1 0.18162-0.15758l0.32585-0.08013v-0.65169l-0.32585-0.08013a0.26896 0.26896 0 0 1-0.18162-0.15758zm-1.3622 1.6319a1.0683 1.0683 0 1 1 1.0684-1.0684 1.0683 1.0683 0 0 1-1.0684 1.0684z"/>
   <path d="m69.169 83.064h-1.8696v-0.53418h1.6025v-2.1367a0.26709 0.26709 0 0 1 0.26709-0.26709h2.938v0.53417h-2.6709v2.1367a0.26709 0.26709 0 0 1-0.26709 0.26709z"/>
   <path d="m72.641 80.126h0.53417v0.53417h-0.53417z"/>
   <path d="m70.504 84.4h-2.4038v-0.53417h2.1367v-1.3354a0.26709 0.26709 0 0 1 0.26709-0.26709h2.6709v0.53418h-2.4038v1.3354a0.26709 0.26709 0 0 1-0.26709 0.26709z"/>
   <path d="m72.107 87.071h-2.4038a0.26709 0.26709 0 0 1-0.26709-0.26709v-1.0684h-1.3354v-0.53417h1.6025a0.26709 0.26709 0 0 1 0.26709 0.26709v1.0684h2.1367z"/>
   <path d="m72.641 86.537h0.53417v0.53418h-0.53417z"/>
   <path d="m72.107 90.009h-0.53417v-1.0683h-3.205a0.26709 0.26709 0 0 1-0.26709-0.26709v-1.6025h-0.80126v-0.53418h1.0684a0.26709 0.26709 0 0 1 0.26709 0.26709v1.6025h3.205a0.26709 0.26709 0 0 1 0.26709 0.26709z"/>
   <path d="m65.964 87.605h0.53417v1.3354h-0.53417z"/>
   <path d="m65.964 89.475h0.53417v0.53418h-0.53417z"/>
   <path d="m63.026 83.064h-1.8696a0.26709 0.26709 0 0 1-0.26709-0.26709v-2.1367h-2.6709v-0.53417h2.938a0.26709 0.26709 0 0 1 0.26709 0.26709v2.1367h1.6025z"/>
   <path d="m57.15 80.126h0.53418v0.53417h-0.53418z"/>
   <path d="m62.225 84.4h-2.4038a0.26709 0.26709 0 0 1-0.26709-0.26709v-1.3354h-2.4038v-0.53418h2.6709a0.26709 0.26709 0 0 1 0.26709 0.26709v1.3354h2.1367z"/>
   <path d="m60.622 87.071h-2.4038v-0.53418h2.1367v-1.0684a0.26709 0.26709 0 0 1 0.26709-0.26709h1.6025v0.53417h-1.3354v1.0684a0.26709 0.26709 0 0 1-0.26709 0.26709z"/>
   <path d="m57.15 86.537h0.53418v0.53418h-0.53418z"/>
   <path d="m58.753 90.009h-0.53418v-1.3354a0.26709 0.26709 0 0 1 0.26709-0.26709h3.205v-1.6025a0.26709 0.26709 0 0 1 0.26709-0.26709h1.0683v0.53418h-0.80126v1.6025a0.26709 0.26709 0 0 1-0.26709 0.26709h-3.205z"/>
   <path d="m63.827 87.605h0.53418v1.3354h-0.53418z"/>
   <path d="m63.827 89.475h0.53418v0.53418h-0.53418z"/>
  </g>
  <g id="Artwork_3_1_" transform="matrix(.094329 0 0 .094329 60.606 72.142)">
   <path fill="#FF6D70" class="st0" d="m48.983 20.069c-19.036 0-34.468 15.432-34.468 34.468s15.432 34.468 34.468 34.468 34.468-15.432 34.468-34.468-15.432-34.468-34.468-34.468 z"/>
   <path fill="#F8F3EF" class="st1" d="m67.329 59.225c-0.57591-0.41204-0.99451-0.95424-1.2567-1.6276-0.26221-0.67424-0.39237-1.4253-0.39237-2.255 0-0.79973 0.16481-1.5423 0.49632-2.2278 0.33057-0.68548 0.82782-1.2361 1.489-1.6538 0.66207-0.41766 1.4684-0.62649 2.4188-0.62649 0.48882 0 0.90367 0.03933 1.2427 0.11706 0.33993 0.07772 0.69391 0.2285 1.0629 0.45324l-0.07773-3.2907c0-0.37926-0.14796-0.64428-0.44482-0.79411-0.29685-0.14983-0.72668-0.24442-1.2914-0.28468-0.06929-0.02903-0.1208-0.0693-0.15545-0.12174-0.03371-0.05151-0.0515-0.12548-0.0515-0.22381 0-0.08053 0.01966-0.16294 0.05993-0.24628 0.04027-0.08335 0.0899-0.1283 0.14702-0.13391 0.89806-0.05806 2.0555-0.08616 3.4724-0.08616h0.71638c0.06274 0 0.12267 0.02716 0.17699 0.08147 0.05431 0.05525 0.08241 0.14328 0.08241 0.26408v11.512c0 0.23037 0.04682 0.40454 0.14234 0.52254 0.09459 0.11799 0.20695 0.19385 0.33712 0.22849 0.12923 0.03465 0.29124 0.06368 0.48696 0.08615 0.12736 0.01124 0.2107 0.03652 0.25097 0.07398 0.04026 0.03746 0.06087 0.11893 0.06087 0.24535 0 0.07586-0.02809 0.15265-0.08241 0.23412-0.05524 0.0796-0.12548 0.11986-0.21163 0.11986h-2.9704c-0.21913 0-0.37646-0.03278-0.47104-0.09926-0.09458-0.06555-0.15077-0.15639-0.16856-0.27157-0.01686-0.11518-0.02248-0.30247-0.01686-0.56187-0.27719 0.3802-0.68267 0.67331-1.2183 0.87651-0.53471 0.20509-1.0732 0.30716-1.6144 0.30716-0.90368 0-1.6435-0.20602-2.2194-0.61713m4.3264-0.84655c0.29311-0.1414 0.51224-0.33805 0.65645-0.59184v-5.1121c-0.04588-0.13859-0.14702-0.28093-0.30247-0.42796-0.15545-0.14702-0.33244-0.26783-0.53097-0.36241-0.19852-0.09552-0.38394-0.14234-0.55718-0.14234-0.84093 0-1.4393 0.31184-1.7961 0.93645-0.35678 0.62555-0.53471 1.5133-0.53471 2.6642 0 2.1651 0.73044 3.2476 2.1932 3.2476 0.28747 2e-5 0.57871-0.07115 0.87183-0.21162 z"/>
   <path fill="#F8F3EF" class="st1" d="m45.538 58.659c-0.81096-0.78756-1.2174-1.9225-1.2174-3.4021 0-0.92709 0.21725-1.724 0.65176-2.3917 0.43452-0.66769 1.0179-1.1734 1.7493-1.5161 0.73043-0.3418 1.5339-0.51411 2.4095-0.51411 1.2773 0 2.2297 0.25003 2.858 0.74729 0.62743 0.49819 1.0217 1.2277 1.1837 2.1894 0.0515 0.31091 0.07679 0.78569 0.07679 1.4253l-5.9933 0.0084c0 0.83438 0.1311 1.5114 0.39331 2.0293 0.26127 0.51786 0.59464 0.88963 0.99732 1.1144s0.82876 0.33619 1.2783 0.33619c0.53003 0 0.97485-0.06836 1.3344-0.20695 0.3596-0.13766 0.67424-0.36615 0.94488-0.68174 0.0065-0.0056 0.02248-0.02529 0.04776-0.05619 0.02622-0.03184 0.05338-0.05338 0.08241-0.06461 0.0281-0.01218 0.05994-0.01499 0.09552-0.0094l0.37926 0.18167c0.05806 0.02341 0.08616 0.05713 0.08616 0.10395 0 0.03371-0.01686 0.08335-0.05151 0.14608-0.3109 0.54128-0.76602 0.96736-1.3644 1.2783-0.59933 0.3109-1.3354 0.46635-2.211 0.46635-1.6753-1e-5 -2.9189-0.39425-3.7308-1.1837m4.5343-6.4203c-0.20134-0.44669-0.52441-0.66956-0.96735-0.66956-0.46635 0-0.86809 0.23224-1.2052 0.69579-0.33619 0.4626-0.54221 1.1762-0.61712 2.137h3.0922c1e-5 -0.99546-0.10113-1.7165-0.30247-2.1632 z"/>
   <path fill="#F8F3EF" class="st1" d="m53.988 59.475c-0.05244-0.07772-0.07773-0.15639-0.07773-0.23692 0-0.09833 0.01966-0.17324 0.05993-0.22475 0.04027-0.05244 0.11518-0.08428 0.22475-0.09552 0.61057-0.07398 0.91491-0.2594 0.91491-0.55251v-5.4923c0-0.26501-0.04869-0.46635-0.14608-0.60495-0.09833-0.13766-0.21257-0.22943-0.34087-0.27625-0.12923-0.04588-0.29873-0.08334-0.50568-0.11238-0.16762-0.02247-0.26501-0.04026-0.29311-0.0515-0.07023-0.02903-0.12173-0.0693-0.15545-0.1208-0.03465-0.05244-0.05244-0.12642-0.05244-0.22475 0-0.08054 0.01873-0.16201 0.05619-0.24629 0.03746-0.08334 0.08803-0.12829 0.1517-0.13391 1.3466-0.0796 2.564-0.1208 3.6531-0.1208 0.05712 0 0.11143 0.02622 0.16388 0.07773 0.05151 0.05244 0.08335 0.1414 0.09459 0.26782v0.96736c0.13297-0.15545 0.3802-0.35023 0.7426-0.58341 0.36335-0.23317 0.78475-0.43732 1.2652-0.61244 0.48133-0.17605 0.95518-0.26408 1.4206-0.26408 0.85217 0 1.5292 0.18354 2.0302 0.54876 0.50006 0.36615 0.75104 1.0404 0.75104 2.0246v4.6729c0 0.32214 0.08054 0.53284 0.2416 0.63023 0.16107 0.09833 0.32964 0.15545 0.50568 0.17231 0.17512 0.01779 0.29124 0.02903 0.3493 0.03465 0.10395 0.01124 0.17699 0.03933 0.221 0.08241 0.04214 0.04308 0.06368 0.12268 0.06368 0.23786 0 0.08053-0.02528 0.15919-0.07773 0.23692-0.05151 0.07773-0.12361 0.11706-0.21538 0.11706h-4.6373c-0.09271 0-0.16481-0.03933-0.21632-0.11706-0.05151-0.07772-0.07772-0.15639-0.07772-0.23692 0-0.10395 0.01685-0.1798 0.05151-0.22943 0.03465-0.04869 0.10675-0.0796 0.21632-0.09084 0.21258-0.02248 0.40455-0.08334 0.57404-0.18167 0.1695-0.09739 0.25471-0.221 0.25471-0.37083v-4.9136c0-0.22475-0.01685-0.42608-0.0515-0.60495-0.03465-0.17886-0.12829-0.339-0.28094-0.48321-0.15264-0.14421-0.38395-0.21632-0.69485-0.21632-0.29404 0-0.59465 0.05618-0.90274 0.16856-0.30809 0.11237-0.58997 0.2519-0.84655 0.41859-0.25565 0.16763-0.45605 0.3315-0.60027 0.49257v4.8536c0 0.23037 0.04214 0.40455 0.12548 0.52254 0.08334 0.118 0.18542 0.19572 0.30716 0.23318 0.1208 0.03746 0.27625 0.06461 0.46541 0.08147 0.12642 0.01124 0.2107 0.03652 0.25097 0.07398 0.04026 0.03746 0.05993 0.11893 0.05993 0.24629 0 0.07492-0.02716 0.1517-0.08147 0.23317-0.05525 0.08054-0.12548 0.1208-0.21164 0.1208h-4.5343c-0.09176 1e-5 -0.16387-0.03932-0.21537-0.11705 z"/>
   <path fill="#F8F3EF" class="st1" d="m43.957 58.993c-0.04026-0.03839-0.12361-0.06274-0.25097-0.07398-0.21257-0.02341-0.38863-0.05057-0.52629-0.08241-0.1386-0.0309-0.26033-0.1002-0.36709-0.20695-0.10675-0.10582-0.16013-0.26033-0.16013-0.46167v-11.599c0-0.1208-0.02716-0.20789-0.08147-0.26314-0.05525-0.05432-0.11425-0.08241-0.17699-0.08241-1.3185 0-2.5996 0.0412-3.8432 0.12174-0.05806 0.0056-0.10675 0.04963-0.14702 0.13391-0.04027 0.08335-0.05993 0.16481-0.05993 0.24535 0 0.09832 0.01685 0.17324 0.05151 0.22475 0.03465 0.0515 0.08615 0.09271 0.15545 0.1208 0.02341 0.0056 0.13204 0.02341 0.32776 0.05244 0.23598 0.02809 0.42889 0.06649 0.57872 0.11143 0.14983 0.04682 0.27906 0.1386 0.38863 0.27719 0.10957 0.13766 0.16388 0.3418 0.16388 0.61338l-0.0084 10.328c0 0.14421-0.86528 0.49726-1.4908 0.49726s-1.4431-0.34836-1.5068-0.50194c-0.06274-0.15265-0.09458-0.34087-0.09458-0.56562v-4.6457c0-0.47197-0.13298-0.88776-0.39706-1.2474-0.26501-0.36053-0.67706-0.64241-1.2352-0.84749-0.55906-0.20415-1.2633-0.30622-2.1164-0.30622-0.59839 0-1.2155 0.07398-1.8523 0.22007-0.63585 0.14703-1.1743 0.37458-1.6144 0.68267s-0.66113 0.69204-0.66113 1.1528c0 0.35679 0.1311 0.64896 0.39331 0.87652 0.17605 0.15358 0.38956 0.25003 0.63304 0.3006 0.25565 0.03652 0.52441-0.02341 0.4907-0.36053-0.0019-0.02341 0-0.03559 0-0.05244-0.059-0.70234 0.2903-1.4393 1.1715-1.8214 0.03933-0.01686 0.07492-0.0281 0.11144-0.04214 0.1517-0.07491 0.48602-0.13578 0.95705-0.13578 0.42608 0 0.74635 0.09645 0.96267 0.28936s0.32401 0.54595 0.32401 1.0582v1.4244c-0.98515 0.10394-1.8673 0.25284-2.6474 0.44481-0.78006 0.19291-1.4421 0.50287-1.9862 0.92896-0.54408 0.42608-0.81565 0.99264-0.81565 1.7006 0 0.5188 0.13391 0.9505 0.40174 1.296s0.59933 0.59839 0.99732 0.7604c0.39705 0.16013 0.78849 0.2416 1.1743 0.2416 0.61619 0 1.1846-0.1002 1.7053-0.29873 0.5216-0.19759 0.96642-0.48977 1.3344-0.87652v0.02622c0 0.19572 0.03933 0.501 0.03933 0.501s0.03278 0.25003 0.32776 0.40361c0.29498 0.15451 2.1248 0.03652 2.4582 0.03652h6.6582c0.09177 0 0.16388-0.03839 0.21632-0.11612 0.05151-0.07772 0.07679-0.15639 0.07679-0.23786-1e-5 -0.1264-0.01967-0.20787-0.05994-0.24533m-9.8805-1.0928c-0.35679 0.43733-0.82033 0.65646-1.3906 0.65646-0.35679 0-0.63491-0.11237-0.83344-0.33712s-0.29779-0.49258-0.29779-0.80348c0-0.55812 0.12174-0.99545 0.36241-1.312 0.24254-0.31652 0.54033-0.54127 0.89431-0.67424 0.35398-0.13204 0.77632-0.23599 1.2651-0.31091 z"/>
   <path fill="#F8F3EF" class="st1" d="m28.036 58.681c-0.03465-0.1002-0.08335-0.19384-0.14702-0.28-0.06368-0.08709-0.11237-0.12173-0.14609-0.10395-0.21913 0.10957-0.45886 0.20134-0.71732 0.27626-0.2594 0.07491-0.48415 0.11237-0.67331 0.11237-0.21351 0-0.37645-0.04776-0.48789-0.14234-0.11237-0.09552-0.19291-0.27063-0.24254-0.52722-0.0487-0.25565-0.07304-0.62836-0.07304-1.1181v-4.966h1.857c0.06368 0 0.12174-0.05994 0.17699-0.18074 0.05431-0.1208 0.08241-0.27064 0.08241-0.4495 0-0.07398-0.01966-0.14141-0.05712-0.19853-0.03746-0.05713-0.08709-0.0899-0.15077-0.09458h-1.9085v-2.4104c0-0.1002-0.06649-0.17043-0.18448-0.21819-0.21538-0.06836-0.3418 0.16669-0.3418 0.16669-0.5806 1.3429-1.7212 2.3786-3.1315 2.8206 0 0-0.28843 0.06929-0.21445 0.3699 0.0094 0.02622 0.01686 0.05244 0.02903 0.07866 0.04027 0.08335 0.08896 0.1283 0.14702 0.13391h0.92334v5.717c0 0.8119 0.24629 1.3785 0.73886 1.7006 0.49257 0.32307 1.1528 0.48414 1.9825 0.48414 0.25846 0 0.55906-0.04869 0.9018-0.14702 0.34274-0.09739 0.66488-0.22287 0.96735-0.37551s0.52535-0.30622 0.66956-0.46167c0.03465-0.02341 0.03465-0.08521 0-0.18635 z"/>
  </g>
 </g>
</svg>